<svg width="14" height="14" viewBox="0 0 14 14" fill="none" xmlns="http://www.w3.org/2000/svg">
<path d="M8.75 7C8.75 7.46413 8.56563 7.90925 8.23744 8.23744C7.90925 8.56563 7.46413 8.75 7 8.75C6.53587 8.75 6.09075 8.56563 5.76256 8.23744C5.43437 7.90925 5.25 7.46413 5.25 7C5.25 6.53587 5.43437 6.09075 5.76256 5.76256C6.09075 5.43437 6.53587 5.25 7 5.25C7.46413 5.25 7.90925 5.43437 8.23744 5.76256C8.56563 6.09075 8.75 6.53587 8.75 7V7Z" stroke="black" stroke-width="2" stroke-linecap="round" stroke-linejoin="round"/>
<path d="M1.43359 7C2.17676 4.63342 4.38818 2.91667 6.99976 2.91667C9.61193 2.91667 11.8228 4.63342 12.5659 7C11.8228 9.36659 9.61193 11.0833 6.99976 11.0833C4.38818 11.0833 2.17676 9.36659 1.43359 7V7Z" stroke="black" stroke-width="2" stroke-linecap="round" stroke-linejoin="round"/>
</svg>
