<svg width="73" height="50" viewBox="0 0 73 50" fill="none" xmlns="http://www.w3.org/2000/svg">
<path d="M3 5H69V50H3V5Z" fill="#0A4888"/>
<path d="M65.1119 14.6589C60.0094 14.6589 55.7444 19.2816 55.7444 25.1516C55.7444 31.0216 60.0094 35.6443 65.1119 35.6443V37.1873C59.0193 37.1873 54.2088 31.7237 54.2088 25.1516C54.2088 18.5795 59.0193 13.1159 65.1119 13.1159V14.6589Z" fill="#E0BC00"/>
<path d="M9.98178 24.9973C9.98178 23.1484 8.61875 21.7569 7.06403 21.7569V20.2139C9.58029 20.2139 11.5174 22.4148 11.5174 24.9973C11.5174 27.5798 9.58029 29.7807 7.06403 29.7807V28.2377C8.61875 28.2377 9.98178 26.8462 9.98178 24.9973Z" fill="#E0BC00"/>
<path fill-rule="evenodd" clip-rule="evenodd" d="M3.07132 3.08609V0H0V49.686H3.07132V46.5999C3.07132 49.686 3.07132 49.686 3.07132 49.686H66.3469C69.7479 49.686 72.4831 46.9137 72.4831 43.5136V6.17238C72.4831 2.77224 69.7479 0 66.3469 0H3.07132C3.07132 0 3.07132 0 3.07132 3.08609ZM6.14263 43.5138V6.17217H66.3405V43.5136L66.1949 43.5138H6.14263Z" fill="#E0BC00"/>
<path d="M30.951 27.1176V24.4999H35.4992V30.5486C35.4992 32.7851 34.4831 33.9034 32.4507 33.9034H29.353C27.3206 33.9034 26.3044 32.7851 26.3044 30.5486V20.3064C26.3044 18.0699 27.3206 16.9517 29.353 16.9517H32.4507C34.4831 16.9517 35.4992 18.0699 35.4992 20.3064V21.8567H32.2294V19.8744C32.2294 19.7388 32.1803 19.6202 32.0819 19.5186C32 19.4169 31.8934 19.3661 31.7623 19.3661H30.2135C30.0823 19.3661 29.9676 19.4169 29.8693 19.5186C29.7873 19.6202 29.7463 19.7388 29.7463 19.8744V30.9552C29.7463 31.0908 29.7873 31.2094 29.8693 31.311C29.9676 31.4127 30.0823 31.4635 30.2135 31.4635H31.7623C31.8934 31.4635 32 31.4127 32.0819 31.311C32.1803 31.2094 32.2294 31.0908 32.2294 30.9552V27.1176H30.951Z" fill="white"/>
<path d="M46.7634 20.3064V30.5486C46.7634 32.7851 45.7472 33.9034 43.7148 33.9034H40.445C38.4127 33.9034 37.3965 32.7851 37.3965 30.5486V20.3064C37.3965 18.0699 38.4127 16.9517 40.445 16.9517H43.7148C45.7472 16.9517 46.7634 18.0699 46.7634 20.3064ZM43.3215 30.9552V19.8744C43.3215 19.7388 43.2723 19.6202 43.174 19.5186C43.092 19.4169 42.9855 19.3661 42.8544 19.3661H41.3055C41.1744 19.3661 41.0597 19.4169 40.9613 19.5186C40.8794 19.6202 40.8384 19.7388 40.8384 19.8744V30.9552C40.8384 31.0908 40.8794 31.2094 40.9613 31.311C41.0597 31.4127 41.1744 31.4635 41.3055 31.4635H42.8544C42.9855 31.4635 43.092 31.4127 43.174 31.311C43.2723 31.2094 43.3215 31.0908 43.3215 30.9552Z" fill="white"/>
</svg>
