<svg width="242" height="50" viewBox="0 0 242 50" fill="none" xmlns="http://www.w3.org/2000/svg">
<path d="M65.1119 14.6589C60.0094 14.6589 55.7444 19.2816 55.7444 25.1516C55.7444 31.0216 60.0094 35.6443 65.1119 35.6443V37.1873C59.0193 37.1873 54.2088 31.7237 54.2088 25.1516C54.2088 18.5795 59.0193 13.1159 65.1119 13.1159V14.6589Z" fill="#E0BC00"/>
<path d="M9.98178 24.9973C9.98178 23.1484 8.61875 21.7569 7.06403 21.7569V20.2139C9.58029 20.2139 11.5174 22.4148 11.5174 24.9973C11.5174 27.5798 9.58029 29.7807 7.06403 29.7807V28.2377C8.61875 28.2377 9.98178 26.8462 9.98178 24.9973Z" fill="#E0BC00"/>
<path fill-rule="evenodd" clip-rule="evenodd" d="M3.07132 3.08609V0H0V49.686H3.07132V46.5999C3.07132 49.686 3.07146 49.686 3.07174 49.686H66.3469C69.7479 49.686 72.4831 46.9137 72.4831 43.5136V6.17238C72.4831 2.77224 69.7479 0 66.3469 0H3.07174C3.07146 0 3.07132 0 3.07132 3.08609ZM6.14263 43.5138V6.17217H66.3405V43.5136L66.1949 43.5138H6.14263Z" fill="#E0BC00"/>
<path d="M30.951 27.1176V24.4999H35.4992V30.5486C35.4992 32.7851 34.483 33.9034 32.4507 33.9034H29.353C27.3206 33.9034 26.3044 32.7851 26.3044 30.5486V20.3064C26.3044 18.0699 27.3206 16.9517 29.353 16.9517H32.4507C34.483 16.9517 35.4992 18.0699 35.4992 20.3064V21.8568H32.2294V19.8744C32.2294 19.7388 32.1803 19.6202 32.0819 19.5186C32 19.4169 31.8934 19.3661 31.7623 19.3661H30.2135C30.0823 19.3661 29.9676 19.4169 29.8693 19.5186C29.7873 19.6202 29.7463 19.7388 29.7463 19.8744V30.9553C29.7463 31.0908 29.7873 31.2094 29.8693 31.3111C29.9676 31.4127 30.0823 31.4636 30.2135 31.4636H31.7623C31.8934 31.4636 32 31.4127 32.0819 31.3111C32.1803 31.2094 32.2294 31.0908 32.2294 30.9553V27.1176H30.951Z" fill="white"/>
<path d="M46.7634 20.3064V30.5486C46.7634 32.7851 45.7472 33.9034 43.7148 33.9034H40.445C38.4127 33.9034 37.3965 32.7851 37.3965 30.5486V20.3064C37.3965 18.0699 38.4127 16.9517 40.445 16.9517H43.7148C45.7472 16.9517 46.7634 18.0699 46.7634 20.3064ZM43.3215 30.9553V19.8744C43.3215 19.7388 43.2723 19.6202 43.174 19.5186C43.092 19.4169 42.9855 19.3661 42.8544 19.3661H41.3055C41.1744 19.3661 41.0597 19.4169 40.9613 19.5186C40.8794 19.6202 40.8384 19.7388 40.8384 19.8744V30.9553C40.8384 31.0908 40.8794 31.2094 40.9613 31.3111C41.0597 31.4127 41.1744 31.4636 41.3055 31.4636H42.8544C42.9855 31.4636 43.092 31.4127 43.174 31.3111C43.2723 31.2094 43.3215 31.0908 43.3215 30.9553Z" fill="white"/>
<path d="M97.0659 3.04803H106.962V40.3158C106.962 46.5626 104.04 49.686 98.1969 49.686H89.4318C83.5884 49.686 80.6667 46.5626 80.6667 40.3158V3.04803H90.5628V41.1676C90.5628 41.5462 90.6806 41.8775 90.9162 42.1614C91.199 42.4454 91.5288 42.5874 91.9058 42.5874H95.7229C96.0999 42.5874 96.4062 42.4454 96.6418 42.1614C96.9246 41.8775 97.0659 41.5462 97.0659 41.1676V3.04803Z" fill="white"/>
<path d="M131.9 2.33817C137.743 2.33817 140.665 5.46156 140.665 11.7083V48.9761H130.769V33.5721H123.63V48.9761H113.733V11.7083C113.733 5.46156 116.655 2.33817 122.499 2.33817H131.9ZM123.63 25.9056H130.769V10.5016C130.769 10.123 130.627 9.79172 130.345 9.50777C130.109 9.22383 129.803 9.08186 129.426 9.08186H124.973C124.596 9.08186 124.266 9.22383 123.983 9.50777C123.747 9.79172 123.63 10.123 123.63 10.5016V25.9056Z" fill="white"/>
<path d="M166.207 3.04803C172.051 3.04803 174.973 6.17142 174.973 12.4182V39.6059C174.973 45.8527 172.051 48.9761 166.207 48.9761H148.041V3.04803H166.207ZM165.076 40.7417V11.2114C165.076 10.8329 164.935 10.5016 164.652 10.2176C164.417 9.93369 164.11 9.79172 163.733 9.79172H157.937V42.1614H163.733C164.11 42.1614 164.417 42.0195 164.652 41.7355C164.935 41.4516 165.076 41.1203 165.076 40.7417Z" fill="white"/>
<path d="M192.245 30.1648V48.9761H182.349V3.04803H199.95C205.793 3.04803 208.715 6.17142 208.715 12.4182V17.7422C208.715 21.5281 207.372 23.9416 204.686 24.9828C207.042 25.8346 208.22 27.7749 208.22 30.8036V48.9761H198.324V31.5845C198.324 30.638 197.876 30.1648 196.981 30.1648H192.245ZM192.245 9.79172V23.2081H197.476C197.853 23.2081 198.159 23.0661 198.394 22.7822C198.677 22.4983 198.819 22.167 198.819 21.7884V11.2114C198.819 10.8329 198.677 10.5016 198.394 10.2176C198.159 9.93369 197.853 9.79172 197.476 9.79172H192.245Z" fill="white"/>
<path d="M233.235 2.33817C239.078 2.33817 242 5.46156 242 11.7083V48.9761H232.104V33.5721H224.965V48.9761H215.069V11.7083C215.069 5.46156 217.99 2.33817 223.834 2.33817H233.235ZM224.965 25.9056H232.104V10.5016C232.104 10.123 231.963 9.79172 231.68 9.50777C231.444 9.22383 231.138 9.08186 230.761 9.08186H226.308C225.931 9.08186 225.601 9.22383 225.318 9.50777C225.083 9.79172 224.965 10.123 224.965 10.5016V25.9056Z" fill="white"/>
</svg>
