<svg width="14" height="14" viewBox="0 0 14 14" fill="none" xmlns="http://www.w3.org/2000/svg">
<path d="M2.3335 4.08333H11.6668M11.0835 4.08333L10.5777 11.1662C10.5568 11.4605 10.4251 11.736 10.2091 11.9371C9.99321 12.1382 9.70908 12.25 9.414 12.25H4.58633C4.29124 12.25 4.00712 12.1382 3.79118 11.9371C3.57524 11.736 3.44353 11.4605 3.42258 11.1662L2.91683 4.08333H11.0835ZM5.8335 6.41667V9.91667V6.41667ZM8.16683 6.41667V9.91667V6.41667ZM8.75016 4.08333V2.33333C8.75016 2.17862 8.6887 2.03025 8.57931 1.92085C8.46991 1.81146 8.32154 1.75 8.16683 1.75H5.8335C5.67879 1.75 5.53041 1.81146 5.42102 1.92085C5.31162 2.03025 5.25016 2.17862 5.25016 2.33333V4.08333H8.75016Z" stroke="black" stroke-width="2" stroke-linecap="round" stroke-linejoin="round"/>
</svg>
